<?xml version="1.0" encoding="UTF-8"?>
<svg width="77px" height="77px" viewBox="0 0 77 77" version="1.1" xmlns="http://www.w3.org/2000/svg" xmlns:xlink="http://www.w3.org/1999/xlink">
    <title>Kiwi Fee Logo</title>
    <g stroke="none" stroke-width="1" fill="none" fill-rule="evenodd">
        <g transform="translate(-752.000000, -362.000000)">
            <g transform="translate(752.000000, 361.000000)">
                <g transform="translate(0.000000, 1.000000)">
                    <path d="M38.5,77 C59.7629629,77 77,59.7629629 77,38.5 C77,17.2370371 59.7629629,0 38.5,0 C17.2370371,0 0,17.2370371 0,38.5 C0,59.7629629 17.2370371,77 38.5,77 Z" fill="#FFFFFF"></path>
                    <path d="M41.8721461,44.0292548 C37.3388887,36.0973286 29.4529668,32.4148418 21.0752097,30.8857976 C19.4601721,30.5910333 16.6859509,29.97248 14.3446801,29.6196342 C12.5780836,29.3533958 10.9633072,29.2975933 10.8128797,29.3127158 C10.3559546,29.2470677 10.2788205,28.653649 10.6042101,28.4154608 C11.3845488,27.7913251 13.9687173,26.9188328 15.2004183,26.7430405 C16.9423736,26.494423 20.3631725,25.9855332 25.2082223,24.0453964 C27.4892345,23.1319949 28.6893438,23.6108717 30.9101359,24.0453964 C37.4357314,25.3222076 48.81146,19.7955627 55.438473,20.9778152 C55.438473,20.9778152 67.9717271,21.6602223 71.8312487,33.3887531 C74.1028239,40.2890948 72.5521029,46.9000381 66.9511671,51.7444457 C64.3625099,53.9841476 62.6953563,56.0943438 61.9174909,59.1892179 C61.8184028,59.5330653 61.7663823,59.8745493 61.7440851,60.1666005 C61.7440851,60.1666005 61.7861999,61.045045 60.9489069,61.045045 L53.7327556,61.045045 C53.7327556,60.2277962 54.6295268,60.145378 54.6295268,60.145378 C55.2686372,59.8980871 55.9052744,59.7709146 56.4576946,59.4977286 C57.5303194,58.9654708 58.8481755,58.2047812 59.244528,57.2391554 C60.8868857,53.2589636 58.9299256,50.3364022 54.2827025,50.0934281 C47.8491095,49.7566468 43.3852296,46.9987952 40.2518256,41.6526433 M26.2457849,28.3866074 C26.2457849,28.8797991 26.6478833,29.2813591 27.1417859,29.2813591 C27.6356662,29.2813591 28.0377869,28.8798214 28.0377869,28.3866074 C28.0377869,27.8934158 27.6356886,27.4918557 27.1417859,27.4918557 C26.6457182,27.4940401 26.2457849,27.8933934 26.2457849,28.3866074" id="Page-1" fill="#37D990" transform="translate(41.621622, 40.927928) scale(-1, 1) translate(-41.621622, -40.927928) "></path>
                    <path d="M33.4782412,24.5765766 C33.7635968,24.5765766 33.990991,24.8396947 33.990991,25.1698801 C33.990991,25.5000656 33.7635968,25.7631837 33.4782412,25.7631837 L26.2861386,25.7657658 C26.0007829,25.7657658 25.7733888,25.5026476 25.7733888,25.1724622 C25.7733888,24.8422768 26.0007829,24.5791586 26.2861386,24.5791586 L33.4782412,24.5765766 Z M26.4160015,24.5765534 L33.4594571,24.5765534 L35.7519058,19.1935487 C35.4156844,19.5982348 34.2432805,19.8876072 32.9005414,19.8876072 C31.3919162,19.8876072 30.1627488,19.5394436 29.9378411,19.0782582 C29.8810776,18.962956 29.8264939,18.8476539 29.7151467,18.7300945 C29.3789254,18.4994902 28.5973154,18.036036 26.9751743,18.036036 C25.3552131,18.036036 24.012474,18.4407221 24.012474,18.9629907 C24.012474,19.0782929 25.2984272,22.0874115 26.4162586,24.5765766 C26.3616749,24.5765766 26.4162586,24.5765766 26.4162586,24.5765766 L26.4160015,24.5765534 Z M27.5678238,35.5815785 C27.7300279,36.1861989 28.2145262,36.7350554 28.9708101,36.9537199 C29.0782451,37.0094617 29.1856801,37.0094617 29.2952183,37.0630631 L29.2952183,33.4954955 C28.75594,33.6048387 28.324086,33.879267 28.0018133,34.2094481 C27.6205274,34.5932196 27.4583287,35.0863562 27.5678615,35.5815895 L27.5678238,35.5815785 Z M31.0561331,43.6036036 C32.0398079,43.3293441 32.8170478,42.6158306 32.8170478,41.7930521 C32.8170478,41.4095166 32.6105922,40.9702736 32.2988879,40.6402846 C31.9871836,40.3660251 31.6248654,40.1474732 31.1067055,40.036036 L31.1087263,43.6035488 L31.0561331,43.6036036 Z M41.6216216,41.3063993 C41.6216216,48.8834191 36.4990703,51.3333333 30.1756757,51.3333333 C23.8522811,51.3333333 18.7297297,48.9375646 18.7297297,41.3063993 C18.7297297,35.7924769 22.9261405,28.9944385 26.5772883,25.7657658 L33.7713378,25.7657658 C37.4248293,29.0514806 41.6210766,35.7926998 41.6210766,41.3063993 L41.6216216,41.3063993 Z M31.3663666,37.4549978 L31.3663666,33.6041116 C32.3971301,33.8791749 33.2115766,34.5947796 33.2115766,35.4199695 L35.1119517,35.4199695 C35.1119517,34.3756092 34.5689874,33.3290483 33.6463824,32.6134437 C32.9952596,32.1191879 32.2338064,31.7882538 31.3663666,31.6227757 L31.3663666,30.5225225 L29.4659914,30.5225225 L29.4659914,31.6227757 L29.3578221,31.6227757 C28.3800519,31.7882428 27.4574469,32.2824875 26.8593174,32.888507 C25.9897058,33.7695897 25.6652303,34.8698429 25.9367124,36.0237884 C26.2081946,37.2895197 27.1859648,38.33388 28.5963689,38.8303143 C28.9229945,38.9399105 29.1944984,38.9957813 29.5189739,39.0495067 L29.5189739,42.9003929 C28.4882104,42.6253296 27.6737639,41.9097249 27.6737639,41.084535 L25.7733888,41.084535 C25.7733888,42.1288953 26.3163531,43.1754562 27.2389581,43.8910608 C27.8900809,44.3853166 28.6515341,44.7162507 29.5189739,44.8817288 L29.5189739,45.981982 L31.419349,45.981982 L31.419349,44.8817288 C32.2889607,44.7162617 33.048242,44.3874731 33.6993649,43.8910608 C34.6219698,43.1754562 35.1649342,42.1310958 35.1649342,41.084535 C35.1649342,40.1497599 34.7301392,39.2149848 33.970847,38.5530725 C33.1585181,37.8396133 32.1807479,37.56455 31.3663014,37.4549648 L31.3663666,37.4549978 Z" fill="#FFFFFF"></path>
                </g>
            </g>
        </g>
    </g>
</svg>
